:SAMPLES-PER-SECOND 30
:FULLY-SPECIFIED
:DEGREES
349
root  -2.4378 19.2452 56.0313 64.3343 3.03514 1.70504
RightUpLeg  -63.3708 -2.76701 14.6129
RightLeg  107.786 19.0685 -9.16714
RightFoot  -17.4324 0.0121478 -1.16336
RightToes  5.82077e-011 -3.18055e-015 -2.98177e-016
Spine  32.8806 -2.33844 8.67181
Spine1  -16.4327 -0.577578 -8.27612
HEad  -25.1026 -5.20209 3.70161
LeftShoulder1  -3.88251e-019 9.70628e-020 -3.87848e-018
LeftArm  0.566376 -22.2852 -75.2757
LeftForeArm  23.8754 -6.34537 -7.07383
LeftHand  -12.556 -12.0118 73.9827
RightShoulder  3.89558 8.67657 18.9197
RightArm  -14.0182 9.31913 53.8348
RightForeArm  3.96604 37.3168 -21.0223
RightHand  -8.22906 9.07257 -59.7307
LeftUpLeg  -56.4709 2.88791 -3.55043
LeftLeg  105.061 -17.4911 12.7176
LeftFoot  -11.3231 -0.00935711 -1.48015
LeftToes  9.37148e-011 4.50685e-012 -4.11107e-011
350
root  -2.58847 19.2091 56.3882 63.9994 2.30116 1.99168
RightUpLeg  -61.8652 -2.64708 14.0455
RightLeg  107.02 18.9375 -9.15793
RightFoot  -17.3985 0.00560316 -1.34572
RightToes  5.82077e-011 -3.18055e-015 -2.98177e-016
Spine  33.2933 -2.30979 8.3049
Spine1  -16.3485 -0.549537 -10.3962
HEad  -25.3965 -5.86527 4.4811
LeftShoulder1  -3.88251e-019 9.70628e-020 -3.87848e-018
LeftArm  1.22928 -22.1902 -75.8261
LeftForeArm  24.8565 -6.38104 -7.19159
LeftHand  -12.676 -12.1102 74.1903
RightShoulder  3.45095 8.23173 16.8748
RightArm  -16.4262 15.5074 53.7829
RightForeArm  5.61683 31.0096 -17.0182
RightHand  -7.54719 8.27404 -58.2222
LeftUpLeg  -60.4942 2.26918 -4.38096
LeftLeg  111.095 -18.8267 12.516
LeftFoot  -15.8047 -0.0692296 -1.05276
LeftToes  9.37148e-011 4.50685e-012 -4.11107e-011
351
root  -2.71865 19.1903 56.8078 63.7154 1.10588 2.01216
RightUpLeg  -60.3652 -2.22908 13.2717
RightLeg  105.862 18.9045 -9.59495
RightFoot  -17.11 0.0246693 -0.850064
RightToes  5.82077e-011 -3.18055e-015 -2.98177e-016
Spine  33.5241 -2.03665 7.81267
Spine1  -16.0463 -0.321669 -12.5861
HEad  -25.216 -6.65309 5.14241
LeftShoulder1  -3.88251e-019 9.70628e-020 -3.87848e-018
LeftArm  1.72421 -21.9515 -76.3621
LeftForeArm  25.8418 -6.52028 -7.16085
LeftHand  -12.8441 -12.2661 74.418
RightShoulder  3.10372 7.8533 15.2421
RightArm  -17.7463 19.9319 53.3255
RightForeArm  6.12059 25.5524 -13.9667
RightHand  -6.49263 7.23272 -54.7715
LeftUpLeg  -64.5069 1.48696 -5.28914
LeftLeg  116.089 -19.9438 12.2636
LeftFoot  -19.8899 -0.100836 -0.811691
LeftToes  9.37148e-011 4.50685e-012 -4.11107e-011
352
root  -2.82794 19.1643 57.2758 63.2739 -0.4654 1.48675
RightUpLeg  -58.6261 -1.30682 12.3618
RightLeg  104.517 18.8818 -10.2051
RightFoot  -17.0196 0.0547049 0.0385043
RightToes  5.82077e-011 -3.18055e-015 -2.98177e-016
Spine  34.2342 -1.55614 7.52435
Spine1  -16.223 0.183445 -15.2032
HEad  -24.6965 -7.44688 5.65434
LeftShoulder1  -3.88251e-019 9.70628e-020 -3.87848e-018
LeftArm  2.08499 -21.5589 -76.8833
LeftForeArm  27.014 -6.53578 -7.22389
LeftHand  -13.0933 -12.4616 74.8615
RightShoulder  2.93482 7.66039 14.4258
RightArm  -15.6733 22.8199 52.7217
RightForeArm  4.11392 20.868 -12.0251
RightHand  -5.49763 6.10036 -51.4968
LeftUpLeg  -68.2128 0.975023 -5.95673
LeftLeg  120.387 -20.5311 11.4129
LeftFoot  -22.841 -0.0939767 -0.372257
LeftToes  9.37148e-011 4.50685e-012 -4.11107e-011
353
root  -2.92356 19.1118 57.7708 62.4886 -2.23499 0.560376
RightUpLeg  -56.3417 -0.0593526 11.3615
RightLeg  103.166 18.7952 -10.6963
RightFoot  -17.2381 0.0734305 0.555539
RightToes  5.82077e-011 -3.18055e-015 -2.98177e-016
Spine  35.2852 -1.10011 7.54131
Spine1  -16.0495 0.881768 -18.055
HEad  -24.7099 -7.68358 5.87484
LeftShoulder1  -3.88251e-019 9.70628e-020 -3.87848e-018
LeftArm  2.58289 -21.4619 -77.0189
LeftForeArm  27.7711 -6.50929 -7.46533
LeftHand  -13.2825 -12.5084 75.5139
RightShoulder  2.7857 7.49753 13.6771
RightArm  -9.60324 24.8344 53.2165
RightForeArm  -0.591889 15.9523 -11.5969
RightHand  -5.12211 5.24077 -51.7529
LeftUpLeg  -71.0408 0.79007 -6.33625
LeftLeg  124.03 -20.6199 10.2224
LeftFoot  -25.7244 -0.123643 -0.470868
LeftToes  9.37148e-011 4.50685e-012 -4.11107e-011
354
root  -3.00917 19.0587 58.3021 61.1739 -4.10415 -0.0306031
RightUpLeg  -53.2762 0.880226 9.95306
RightLeg  101.784 18.6004 -10.9035
RightFoot  -17.6413 0.0807878 0.656086
RightToes  5.82077e-011 -3.18055e-015 -2.98177e-016
Spine  36.2855 -0.916001 7.40211
Spine1  -14.8421 1.45183 -20.4778
HEad  -25.1297 -7.28192 5.84926
LeftShoulder1  -3.88251e-019 9.70628e-020 -3.87848e-018
LeftArm  3.19739 -21.7577 -76.7223
LeftForeArm  27.8636 -6.344 -7.74432
LeftHand  -13.2898 -12.3169 76.1602
RightShoulder  2.63095 7.26543 12.9786
RightArm  -5.58543 25.9375 54.4878
RightForeArm  -3.30188 12.476 -11.2568
RightHand  -5.43108 5.00917 -55.4223
LeftUpLeg  -72.7074 0.409508 -6.88659
LeftLeg  126.59 -20.4772 9.23402
LeftFoot  -28.9719 -0.191012 -0.819029
LeftToes  9.37148e-011 4.50685e-012 -4.11107e-011
355
root  -3.08468 19.0232 58.8697 59.4977 -5.91581 -0.323032
RightUpLeg  -49.6973 1.61418 8.31855
RightLeg  100.252 18.3027 -10.855
RightFoot  -17.9795 0.0938877 0.89586
RightToes  5.82077e-011 -3.18055e-015 -2.98177e-016
Spine  37.1695 -0.974247 6.65203
Spine1  -13.4623 1.57211 -21.6142
HEad  -24.7894 -6.11189 5.51147
LeftShoulder1  -3.88251e-019 9.70628e-020 -3.87848e-018
LeftArm  2.95637 -21.4944 -75.3392
LeftForeArm  27.745 -6.20259 -7.89122
LeftHand  -13.1555 -12.0134 76.5815
RightShoulder  2.42417 7.03833 11.8853
RightArm  -5.07725 25.5422 56.4801
RightForeArm  -3.88234 11.6392 -11.2362
RightHand  -6.04418 5.38195 -58.9446
LeftUpLeg  -73.6991 -0.0120791 -7.63012
LeftLeg  127.951 -20.417 8.77177
LeftFoot  -30.5314 -0.163421 -0.514033
LeftToes  9.37148e-011 4.50685e-012 -4.11107e-011
356
root  -3.17005 18.9895 59.4454 57.9848 -7.66343 -1.33289
RightUpLeg  -46.2396 3.10817 7.23236
RightLeg  98.5154 17.9776 -10.8232
RightFoot  -18.0069 0.113068 1.34998
RightToes  5.82077e-011 -3.18055e-015 -2.98177e-016
Spine  37.7328 -0.861861 5.76554
Spine1  -12.4006 1.71754 -22.1189
HEad  -23.5542 -4.4482 5.21232
LeftShoulder1  -3.88251e-019 9.70628e-020 -3.87848e-018
LeftArm  1.87663 -20.2698 -73.1015
LeftForeArm  27.8068 -6.23764 -7.68448
LeftHand  -13.0677 -11.828 76.8208
RightShoulder  2.21178 6.84613 10.6637
RightArm  -4.76556 24.602 58.9007
RightForeArm  -4.47936 12.2157 -11.0522
RightHand  -6.56012 5.9819 -60.3336
LeftUpLeg  -74.4956 0.592365 -8.05089
LeftLeg  128.627 -20.5618 8.74874
LeftFoot  -27.9432 -0.101449 -0.212751
LeftToes  9.37148e-011 4.50685e-012 -4.11107e-011
357
root  -3.26055 18.932 60.0089 56.8809 -9.27845 -3.18213
RightUpLeg  -43.1407 5.23663 6.96241
RightLeg  96.6767 17.6827 -11.0025
RightFoot  -17.8633 0.121141 1.60165
RightToes  5.82077e-011 -3.18055e-015 -2.98177e-016
Spine  37.9365 -0.53849 5.43407
Spine1  -11.5204 2.21464 -22.6129
HEad  -22.3288 -2.68236 5.13
LeftShoulder1  -3.88251e-019 9.70628e-020 -3.87848e-018
LeftArm  0.650044 -18.384 -70.8445
LeftForeArm  27.9733 -6.43552 -7.36742
LeftHand  -13.2037 -11.8404 77.3609
RightShoulder  2.03104 6.72951 9.53072
RightArm  -2.79992 24.2774 61.8415
RightForeArm  -5.36205 11.7091 -10.4023
RightHand  -6.97584 6.4686 -61.3125
LeftUpLeg  -74.8429 2.18283 -8.00016
LeftLeg  129.01 -20.8614 8.97486
LeftFoot  -21.605 -0.130828 -1.0926
LeftToes  9.37148e-011 4.50685e-012 -4.11107e-011
358
root  -3.30145 18.8069 60.5646 56.7913 -10.4336 -5.39311
RightUpLeg  -41.0166 7.28472 7.34291
RightLeg  94.8595 17.4183 -11.3789
RightFoot  -17.7348 0.119206 1.61074
RightToes  5.82077e-011 -3.18055e-015 -2.98177e-016
Spine  37.0303 -0.52259 6.41906
Spine1  -10.5259 2.81957 -23.7918
HEad  -21.5848 -0.887864 5.59533
LeftShoulder1  -3.88251e-019 9.70628e-020 -3.87848e-018
LeftArm  -0.190221 -16.2655 -68.7642
LeftForeArm  27.9316 -6.4105 -7.2471
LeftHand  -13.5133 -11.8329 78.6966
RightShoulder  1.93488 6.81494 8.71809
RightArm  -1.19154 24.0627 65.4375
RightForeArm  -5.03885 10.0853 -9.97076
RightHand  -7.50121 6.84148 -63.4408
LeftUpLeg  -74.9723 3.87481 -7.55498
LeftLeg  129.041 -21.3227 9.47589
LeftFoot  -15.0603 -0.0844168 -2.19615
LeftToes  9.37148e-011 4.50685e-012 -4.11107e-011
359
root  -3.27742 18.6514 61.1369 57.7297 -10.9941 -6.79986
RightUpLeg  -40.0945 8.30338 7.52753
RightLeg  93.0296 17.1453 -11.8598
RightFoot  -17.6436 0.121621 1.71585
RightToes  5.82077e-011 -3.18055e-015 -2.98177e-016
Spine  35.0695 -1.07004 8.0156
Spine1  -9.64778 2.92143 -25.112
HEad  -20.8949 0.915344 6.69609
LeftShoulder1  -3.88251e-019 9.70628e-020 -3.87848e-018
LeftArm  -0.898222 -13.8248 -66.9564
LeftForeArm  27.697 -5.83584 -7.22367
LeftHand  -13.7379 -11.583 80.4874
RightShoulder  1.95115 7.119 8.42987
RightArm  -1.32671 22.9024 68.801
RightForeArm  -3.31326 9.52394 -10.2106
RightHand  -8.08241 7.2341 -65.6987
LeftUpLeg  -75.1555 4.55079 -7.50218
LeftLeg  128.306 -21.8962 10.3458
LeftFoot  -11.084 -0.00789588 -1.43858
LeftToes  9.37148e-011 4.50685e-012 -4.11107e-011
360
root  -3.27261 18.5536 61.7296 59.2249 -11.3038 -6.74062
RightUpLeg  -40.0597 8.07222 6.97968
RightLeg  91.0111 16.8313 -12.5786
RightFoot  -17.5834 0.128227 1.91734
RightToes  5.82077e-011 -3.18055e-015 -2.98177e-016
Spine  33.0353 -1.72253 8.53198
Spine1  -9.54754 2.26643 -25.1185
HEad  -19.8383 2.79605 7.89794
LeftShoulder1  -3.88251e-019 9.70628e-020 -3.87848e-018
LeftArm  -1.93794 -10.8233 -65.535
LeftForeArm  27.496 -5.01502 -7.09101
LeftHand  -13.7753 -11.2709 81.7245
RightShoulder  2.0651 7.50806 8.72235
RightArm  -1.82019 21.0723 71.2253
RightForeArm  -1.01334 10.6534 -10.4283
RightHand  -8.56453 7.65649 -67.0286
LeftUpLeg  -75.5594 4.18909 -8.39225
LeftLeg  126.706 -22.314 11.3733
LeftFoot  -9.12233 -0.0382767 0.427056
LeftToes  9.37148e-011 4.50685e-012 -4.11107e-011
